ply
format ascii 1.0
comment Created by Blender 2.74 (sub 0) - www.blender.org, source file: ''
element vertex 192
property float x
property float y
property float z
property float nx
property float ny
property float nz
element face 92
property list uchar uint vertex_indices
end_header
0.000000 1.000000 -1.000000 0.098017 0.995185 0.000000
0.000000 1.000000 1.000000 0.098017 0.995185 0.000000
0.195090 0.980785 1.000000 0.098017 0.995185 0.000000
0.195090 0.980785 -1.000000 0.098017 0.995185 0.000000
0.195090 0.980785 -1.000000 0.290285 0.956940 0.000000
0.195090 0.980785 1.000000 0.290285 0.956940 0.000000
0.382683 0.923880 1.000000 0.290285 0.956940 0.000000
0.382683 0.923880 -1.000000 0.290285 0.956940 0.000000
0.382683 0.923880 -1.000000 0.471397 0.881921 0.000000
0.382683 0.923880 1.000000 0.471397 0.881921 0.000000
0.555570 0.831470 1.000000 0.471397 0.881921 0.000000
0.555570 0.831470 -1.000000 0.471397 0.881921 0.000000
0.555570 0.831470 -1.000000 0.634393 0.773010 0.000000
0.555570 0.831470 1.000000 0.634393 0.773010 0.000000
0.707107 0.707107 1.000000 0.634393 0.773010 0.000000
0.707107 0.707107 -1.000000 0.634393 0.773010 0.000000
0.707107 0.707107 -1.000000 0.773010 0.634393 0.000000
0.707107 0.707107 1.000000 0.773010 0.634393 0.000000
0.831470 0.555570 1.000000 0.773010 0.634393 0.000000
0.831470 0.555570 -1.000000 0.773010 0.634393 0.000000
0.831470 0.555570 -1.000000 0.881921 0.471397 0.000000
0.831470 0.555570 1.000000 0.881921 0.471397 0.000000
0.923880 0.382683 1.000000 0.881921 0.471397 0.000000
0.923880 0.382683 -1.000000 0.881921 0.471397 0.000000
0.923880 0.382683 -1.000000 0.956940 0.290285 0.000000
0.923880 0.382683 1.000000 0.956940 0.290285 0.000000
0.980785 0.195090 1.000000 0.956940 0.290285 0.000000
0.980785 0.195090 -1.000000 0.956940 0.290285 0.000000
0.980785 0.195090 -1.000000 0.995185 0.098017 0.000000
0.980785 0.195090 1.000000 0.995185 0.098017 0.000000
1.000000 0.000000 1.000000 0.995185 0.098017 0.000000
1.000000 0.000000 -1.000000 0.995185 0.098017 0.000000
1.000000 0.000000 -1.000000 0.995185 -0.098017 0.000000
1.000000 0.000000 1.000000 0.995185 -0.098017 0.000000
0.980785 -0.195090 1.000000 0.995185 -0.098017 0.000000
0.980785 -0.195090 -1.000000 0.995185 -0.098017 0.000000
0.980785 -0.195090 -1.000000 0.956940 -0.290285 0.000000
0.980785 -0.195090 1.000000 0.956940 -0.290285 0.000000
0.923880 -0.382683 1.000000 0.956940 -0.290285 0.000000
0.923880 -0.382683 -1.000000 0.956940 -0.290285 0.000000
0.923880 -0.382683 -1.000000 0.881921 -0.471396 0.000000
0.923880 -0.382683 1.000000 0.881921 -0.471396 0.000000
0.831470 -0.555570 1.000000 0.881921 -0.471396 0.000000
0.831470 -0.555570 -1.000000 0.881921 -0.471396 0.000000
0.831470 -0.555570 -1.000000 0.773010 -0.634393 0.000000
0.831470 -0.555570 1.000000 0.773010 -0.634393 0.000000
0.707107 -0.707107 1.000000 0.773010 -0.634393 0.000000
0.707107 -0.707107 -1.000000 0.773010 -0.634393 0.000000
0.707107 -0.707107 -1.000000 0.634393 -0.773010 0.000000
0.707107 -0.707107 1.000000 0.634393 -0.773010 0.000000
0.555570 -0.831470 1.000000 0.634393 -0.773010 0.000000
0.555570 -0.831470 -1.000000 0.634393 -0.773010 0.000000
0.555570 -0.831470 -1.000000 0.471397 -0.881921 0.000000
0.555570 -0.831470 1.000000 0.471397 -0.881921 0.000000
0.382683 -0.923880 1.000000 0.471397 -0.881921 0.000000
0.382683 -0.923880 -1.000000 0.471397 -0.881921 0.000000
0.382683 -0.923880 -1.000000 0.290284 -0.956940 0.000000
0.382683 -0.923880 1.000000 0.290284 -0.956940 0.000000
0.195090 -0.980785 1.000000 0.290284 -0.956940 0.000000
0.195090 -0.980785 -1.000000 0.290284 -0.956940 0.000000
0.195090 -0.980785 -1.000000 0.098017 -0.995185 0.000000
0.195090 -0.980785 1.000000 0.098017 -0.995185 0.000000
-0.000000 -1.000000 1.000000 0.098017 -0.995185 0.000000
-0.000000 -1.000000 -1.000000 0.098017 -0.995185 0.000000
-0.000000 -1.000000 -1.000000 -0.098018 -0.995185 0.000000
-0.000000 -1.000000 1.000000 -0.098018 -0.995185 0.000000
-0.195091 -0.980785 1.000000 -0.098018 -0.995185 0.000000
-0.195091 -0.980785 -1.000000 -0.098018 -0.995185 0.000000
-0.195091 -0.980785 -1.000000 -0.290285 -0.956940 0.000000
-0.195091 -0.980785 1.000000 -0.290285 -0.956940 0.000000
-0.382684 -0.923879 1.000000 -0.290285 -0.956940 0.000000
-0.382684 -0.923879 -1.000000 -0.290285 -0.956940 0.000000
-0.382684 -0.923879 -1.000000 -0.471397 -0.881921 0.000000
-0.382684 -0.923879 1.000000 -0.471397 -0.881921 0.000000
-0.555571 -0.831469 1.000000 -0.471397 -0.881921 0.000000
-0.555571 -0.831469 -1.000000 -0.471397 -0.881921 0.000000
-0.555571 -0.831469 -1.000000 -0.634394 -0.773010 0.000000
-0.555571 -0.831469 1.000000 -0.634394 -0.773010 0.000000
-0.707107 -0.707106 1.000000 -0.634394 -0.773010 0.000000
-0.707107 -0.707106 -1.000000 -0.634394 -0.773010 0.000000
-0.707107 -0.707106 -1.000000 -0.773011 -0.634393 0.000000
-0.707107 -0.707106 1.000000 -0.773011 -0.634393 0.000000
-0.831470 -0.555570 1.000000 -0.773011 -0.634393 0.000000
-0.831470 -0.555570 -1.000000 -0.773011 -0.634393 0.000000
-0.831470 -0.555570 -1.000000 -0.881922 -0.471396 0.000000
-0.831470 -0.555570 1.000000 -0.881922 -0.471396 0.000000
-0.923880 -0.382683 1.000000 -0.881922 -0.471396 0.000000
-0.923880 -0.382683 -1.000000 -0.881922 -0.471396 0.000000
-0.923880 -0.382683 -1.000000 -0.956941 -0.290284 0.000000
-0.923880 -0.382683 1.000000 -0.956941 -0.290284 0.000000
-0.980785 -0.195089 1.000000 -0.956941 -0.290284 0.000000
-0.980785 -0.195089 -1.000000 -0.956941 -0.290284 0.000000
-0.980785 -0.195089 -1.000000 -0.995185 -0.098016 0.000000
-0.980785 -0.195089 1.000000 -0.995185 -0.098016 0.000000
-1.000000 0.000001 1.000000 -0.995185 -0.098016 0.000000
-1.000000 0.000001 -1.000000 -0.995185 -0.098016 0.000000
-1.000000 0.000001 -1.000000 -0.995185 0.098018 0.000000
-1.000000 0.000001 1.000000 -0.995185 0.098018 0.000000
-0.980785 0.195091 1.000000 -0.995185 0.098018 0.000000
-0.980785 0.195091 -1.000000 -0.995185 0.098018 0.000000
-0.980785 0.195091 -1.000000 -0.956940 0.290286 0.000000
-0.980785 0.195091 1.000000 -0.956940 0.290286 0.000000
-0.923879 0.382684 1.000000 -0.956940 0.290286 0.000000
-0.923879 0.382684 -1.000000 -0.956940 0.290286 0.000000
-0.923879 0.382684 -1.000000 -0.881921 0.471398 0.000000
-0.923879 0.382684 1.000000 -0.881921 0.471398 0.000000
-0.831469 0.555571 1.000000 -0.881921 0.471398 0.000000
-0.831469 0.555571 -1.000000 -0.881921 0.471398 0.000000
-0.831469 0.555571 -1.000000 -0.773010 0.634394 0.000000
-0.831469 0.555571 1.000000 -0.773010 0.634394 0.000000
-0.707106 0.707108 1.000000 -0.773010 0.634394 0.000000
-0.707106 0.707108 -1.000000 -0.773010 0.634394 0.000000
-0.707106 0.707108 -1.000000 -0.634392 0.773011 0.000000
-0.707106 0.707108 1.000000 -0.634392 0.773011 0.000000
-0.555569 0.831470 1.000000 -0.634392 0.773011 0.000000
-0.555569 0.831470 -1.000000 -0.634392 0.773011 0.000000
-0.555569 0.831470 -1.000000 -0.471395 0.881922 0.000000
-0.555569 0.831470 1.000000 -0.471395 0.881922 0.000000
-0.382682 0.923880 1.000000 -0.471395 0.881922 0.000000
-0.382682 0.923880 -1.000000 -0.471395 0.881922 0.000000
0.195090 0.980785 1.000000 0.000000 0.000000 1.000000
0.555570 0.831470 1.000000 0.000000 0.000000 1.000000
0.382683 0.923880 1.000000 0.000000 0.000000 1.000000
0.831470 0.555570 1.000000 0.000000 0.000000 1.000000
0.707107 0.707107 1.000000 0.000000 0.000000 1.000000
0.980785 0.195090 1.000000 0.000000 0.000000 1.000000
0.923880 0.382683 1.000000 0.000000 0.000000 1.000000
0.980785 -0.195090 1.000000 0.000000 0.000000 1.000000
1.000000 0.000000 1.000000 0.000000 0.000000 1.000000
0.831470 -0.555570 1.000000 0.000000 0.000000 1.000000
0.923880 -0.382683 1.000000 0.000000 0.000000 1.000000
0.555570 -0.831470 1.000000 0.000000 0.000000 1.000000
0.707107 -0.707107 1.000000 0.000000 0.000000 1.000000
0.195090 -0.980785 1.000000 0.000000 0.000000 1.000000
0.382683 -0.923880 1.000000 0.000000 0.000000 1.000000
-0.195091 -0.980785 1.000000 0.000000 0.000000 1.000000
-0.000000 -1.000000 1.000000 0.000000 0.000000 1.000000
-0.555571 -0.831469 1.000000 0.000000 0.000000 1.000000
-0.382684 -0.923879 1.000000 0.000000 0.000000 1.000000
-0.831470 -0.555570 1.000000 0.000000 0.000000 1.000000
-0.707107 -0.707106 1.000000 0.000000 0.000000 1.000000
-0.980785 -0.195089 1.000000 0.000000 0.000000 1.000000
-0.923880 -0.382683 1.000000 0.000000 0.000000 1.000000
-0.980785 0.195091 1.000000 0.000000 -0.000000 1.000000
-1.000000 0.000001 1.000000 0.000000 -0.000000 1.000000
-0.831469 0.555571 1.000000 0.000000 0.000000 1.000000
-0.923879 0.382684 1.000000 0.000000 0.000000 1.000000
-0.555569 0.831470 1.000000 0.000000 0.000000 1.000000
-0.707106 0.707108 1.000000 0.000000 0.000000 1.000000
-0.195089 0.980786 1.000000 0.000000 0.000000 1.000000
-0.382682 0.923880 1.000000 0.000000 0.000000 1.000000
0.000000 1.000000 1.000000 -0.000000 0.000000 1.000000
0.000000 1.000000 1.000000 -0.098017 0.995185 0.000000
0.000000 1.000000 -1.000000 -0.098017 0.995185 0.000000
-0.195089 0.980786 -1.000000 -0.098017 0.995185 0.000000
-0.195089 0.980786 1.000000 -0.098017 0.995185 0.000000
-0.382682 0.923880 -1.000000 -0.290283 0.956941 0.000000
-0.382682 0.923880 1.000000 -0.290283 0.956941 0.000000
-0.195089 0.980786 1.000000 -0.290283 0.956941 0.000000
-0.195089 0.980786 -1.000000 -0.290283 0.956941 0.000000
0.000000 1.000000 -1.000000 0.000000 -0.000000 -1.000000
-0.382682 0.923880 -1.000000 0.000000 -0.000000 -1.000000
-0.195089 0.980786 -1.000000 0.000000 -0.000000 -1.000000
-0.707106 0.707108 -1.000000 0.000000 0.000000 -1.000000
-0.555569 0.831470 -1.000000 0.000000 0.000000 -1.000000
-0.923879 0.382684 -1.000000 0.000000 0.000000 -1.000000
-0.831469 0.555571 -1.000000 0.000000 0.000000 -1.000000
-1.000000 0.000001 -1.000000 0.000000 0.000000 -1.000000
-0.980785 0.195091 -1.000000 0.000000 0.000000 -1.000000
-0.923880 -0.382683 -1.000000 0.000000 0.000000 -1.000000
-0.980785 -0.195089 -1.000000 0.000000 0.000000 -1.000000
-0.707107 -0.707106 -1.000000 0.000000 0.000000 -1.000000
-0.831470 -0.555570 -1.000000 0.000000 0.000000 -1.000000
-0.382684 -0.923879 -1.000000 0.000000 0.000000 -1.000000
-0.555571 -0.831469 -1.000000 0.000000 0.000000 -1.000000
-0.000000 -1.000000 -1.000000 0.000000 0.000000 -1.000000
-0.195091 -0.980785 -1.000000 0.000000 0.000000 -1.000000
0.382683 -0.923880 -1.000000 0.000000 0.000000 -1.000000
0.195090 -0.980785 -1.000000 0.000000 0.000000 -1.000000
0.707107 -0.707107 -1.000000 0.000000 0.000000 -1.000000
0.555570 -0.831470 -1.000000 0.000000 0.000000 -1.000000
0.923880 -0.382683 -1.000000 0.000000 0.000000 -1.000000
0.831470 -0.555570 -1.000000 0.000000 0.000000 -1.000000
1.000000 0.000000 -1.000000 0.000000 0.000000 -1.000000
0.980785 -0.195090 -1.000000 0.000000 0.000000 -1.000000
0.923880 0.382683 -1.000000 0.000000 0.000000 -1.000000
0.980785 0.195090 -1.000000 0.000000 0.000000 -1.000000
0.707107 0.707107 -1.000000 0.000000 0.000000 -1.000000
0.831470 0.555570 -1.000000 0.000000 0.000000 -1.000000
0.382683 0.923880 -1.000000 0.000000 0.000000 -1.000000
0.555570 0.831470 -1.000000 0.000000 0.000000 -1.000000
0.195090 0.980785 -1.000000 0.000000 0.000000 -1.000000
4 0 1 2 3
4 4 5 6 7
4 8 9 10 11
4 12 13 14 15
4 16 17 18 19
4 20 21 22 23
4 24 25 26 27
4 28 29 30 31
4 32 33 34 35
4 36 37 38 39
4 40 41 42 43
4 44 45 46 47
4 48 49 50 51
4 52 53 54 55
4 56 57 58 59
4 60 61 62 63
4 64 65 66 67
4 68 69 70 71
4 72 73 74 75
4 76 77 78 79
4 80 81 82 83
4 84 85 86 87
4 88 89 90 91
4 92 93 94 95
4 96 97 98 99
4 100 101 102 103
4 104 105 106 107
4 108 109 110 111
4 112 113 114 115
4 116 117 118 119
3 120 121 122
3 123 124 121
3 125 126 123
3 127 128 125
3 129 130 127
3 131 132 129
3 133 134 131
3 135 136 133
3 137 138 135
3 139 140 137
3 141 142 139
3 143 144 141
3 145 146 143
3 147 148 145
3 149 150 147
3 120 151 149
3 120 123 121
3 127 125 123
3 131 129 127
3 135 133 131
3 139 137 135
3 143 141 139
3 147 145 143
3 120 149 147
3 120 127 123
3 135 131 127
3 143 139 135
3 120 147 143
3 120 135 127
3 120 143 135
4 152 153 154 155
4 156 157 158 159
3 160 161 162
3 163 164 161
3 165 166 163
3 167 168 165
3 169 170 167
3 171 172 169
3 173 174 171
3 175 176 173
3 177 178 175
3 179 180 177
3 181 182 179
3 183 184 181
3 185 186 183
3 187 188 185
3 189 190 187
3 160 191 189
3 160 163 161
3 167 165 163
3 171 169 167
3 175 173 171
3 179 177 175
3 183 181 179
3 187 185 183
3 160 189 187
3 160 167 163
3 175 171 167
3 183 179 175
3 160 187 183
3 160 175 167
3 160 183 175
